<svg id="svg" version="1.1" xmlns="http://www.w3.org/2000/svg" xmlns:xlink="http://www.w3.org/1999/xlink" width="400" height="400" viewBox="0, 0, 400,400"><g id="svgg"><path id="path0" d="M197.501 199.684 L 197.602 379.769 194.901 382.282 C 193.415 383.664,192.065 384.796,191.900 384.798 C 191.406 384.802,191.560 385.618,192.171 386.229 C 192.486 386.543,193.026 386.800,193.371 386.800 C 193.717 386.800,194.000 386.980,194.000 387.200 C 194.000 388.137,195.961 387.483,197.600 386.000 C 198.572 385.120,199.526 384.400,199.720 384.400 C 200.500 384.400,203.170 386.658,203.385 387.500 C 203.647 388.523,204.400 388.724,204.400 387.771 C 204.400 386.974,205.359 386.000,206.144 386.000 C 208.212 386.000,207.109 384.046,203.390 381.120 L 202.401 380.343 202.300 200.471 L 202.200 20.600 200.100 20.479 C 198.945 20.413,198.000 20.188,198.000 19.979 C 198.000 19.771,197.865 19.600,197.700 19.600 C 197.535 19.600,197.445 100.638,197.501 199.684 M213.095 96.239 C 212.633 96.700,212.736 303.513,213.198 303.799 C 213.532 304.005,220.857 299.969,234.700 291.953 C 236.937 290.657,238.934 289.523,240.800 288.489 C 241.790 287.940,243.680 286.861,245.000 286.091 C 247.324 284.735,248.449 284.086,251.400 282.400 C 252.170 281.960,253.430 281.240,254.200 280.800 C 254.970 280.360,256.275 279.610,257.100 279.133 C 259.229 277.901,263.817 275.318,266.400 273.896 C 267.610 273.230,268.780 272.550,269.000 272.385 C 269.220 272.220,270.030 271.728,270.800 271.291 C 271.570 270.854,276.430 268.072,281.600 265.109 C 286.770 262.145,291.810 259.265,292.800 258.709 C 293.790 258.152,298.740 255.313,303.800 252.400 C 308.860 249.487,313.810 246.651,314.800 246.098 C 315.790 245.544,317.680 244.460,319.000 243.688 C 320.320 242.917,322.390 241.744,323.600 241.082 C 324.810 240.420,326.278 239.545,326.862 239.139 C 327.446 238.733,328.023 238.400,328.144 238.400 C 328.266 238.400,329.318 237.835,330.482 237.144 C 332.476 235.962,333.135 235.580,336.600 233.600 C 337.370 233.160,338.675 232.413,339.500 231.941 C 340.325 231.469,341.990 230.543,343.200 229.883 C 344.410 229.224,345.580 228.550,345.800 228.385 C 346.020 228.220,346.875 227.706,347.700 227.243 C 348.525 226.779,349.875 226.021,350.700 225.557 C 351.525 225.094,352.380 224.580,352.600 224.415 C 352.820 224.250,353.990 223.574,355.200 222.912 C 356.410 222.250,359.110 220.720,361.200 219.511 C 363.290 218.303,365.810 216.860,366.800 216.304 C 378.021 210.009,394.313 200.510,394.727 200.021 C 395.180 199.488,395.221 199.556,395.017 200.510 C 394.851 201.284,389.808 206.590,378.354 218.041 C 369.320 227.072,362.020 234.553,362.131 234.665 C 362.405 234.938,396.400 200.919,396.400 200.373 C 396.400 199.664,395.300 198.787,394.700 199.017 C 394.032 199.273,392.580 198.510,380.600 191.603 C 375.540 188.686,370.410 185.754,369.200 185.088 C 367.990 184.423,366.522 183.545,365.938 183.139 C 365.354 182.733,364.783 182.400,364.670 182.400 C 364.556 182.400,362.874 181.477,360.932 180.349 C 355.095 176.959,352.718 175.597,350.000 174.087 C 349.010 173.537,346.940 172.333,345.400 171.410 C 343.860 170.488,341.340 169.050,339.800 168.214 C 338.260 167.378,335.740 165.938,334.200 165.013 C 332.660 164.089,330.410 162.789,329.200 162.125 C 327.990 161.461,326.370 160.552,325.600 160.106 C 322.804 158.484,288.952 139.078,287.200 138.093 C 285.560 137.171,274.165 130.639,270.800 128.692 C 270.030 128.247,268.410 127.343,267.200 126.683 C 265.990 126.024,264.820 125.350,264.600 125.185 C 264.380 125.020,263.525 124.506,262.700 124.043 C 261.875 123.579,260.570 122.840,259.800 122.400 C 259.030 121.960,257.725 121.221,256.900 120.757 C 256.075 120.294,255.220 119.780,255.000 119.615 C 254.780 119.450,253.610 118.774,252.400 118.112 C 251.190 117.450,248.611 115.984,246.668 114.854 C 244.726 113.724,243.044 112.800,242.930 112.800 C 242.817 112.800,242.246 112.467,241.662 112.061 C 241.078 111.655,239.610 110.781,238.400 110.120 C 237.190 109.459,235.570 108.553,234.800 108.107 C 216.215 97.342,213.484 95.849,213.095 96.239 M265.756 162.250 C 271.740 163.278,278.572 165.740,279.075 167.050 C 279.363 167.802,276.157 175.779,275.512 175.913 C 275.213 175.975,273.806 175.502,272.384 174.861 C 262.651 170.474,249.820 170.648,242.120 175.272 C 232.889 180.815,227.982 194.891,230.189 209.503 C 232.841 227.070,243.593 235.133,261.603 233.059 C 269.202 232.184,268.371 234.084,268.495 217.289 L 268.600 203.000 273.400 202.884 C 276.040 202.820,278.605 202.869,279.100 202.992 L 280.000 203.215 280.000 221.394 C 280.000 242.445,280.668 239.953,274.693 241.201 C 238.055 248.852,217.603 235.004,217.601 202.543 C 217.598 173.884,237.335 157.369,265.756 162.250 M126.200 163.789 C 122.107 164.349,120.727 164.715,120.306 165.354 C 119.737 166.218,119.942 239.454,120.515 239.929 C 122.639 241.693,144.657 242.475,151.800 241.042 C 173.344 236.717,183.412 224.403,183.394 202.400 C 183.377 182.226,174.703 170.044,156.771 165.010 C 150.332 163.203,134.970 162.589,126.200 163.789 M149.400 172.565 C 164.654 175.255,172.820 185.739,172.791 202.600 C 172.764 218.713,164.889 229.228,150.657 232.154 C 146.712 232.965,131.651 233.091,130.880 232.320 C 129.993 231.433,130.208 172.952,131.100 172.432 C 132.178 171.804,145.639 171.902,149.400 172.565 M360.060 236.242 C 359.331 237.066,359.800 237.457,360.581 236.676 C 360.921 236.336,361.200 235.954,361.200 235.829 C 361.200 235.409,360.606 235.624,360.060 236.242 M353.660 242.642 C 352.931 243.466,353.400 243.857,354.181 243.076 C 354.521 242.736,354.800 242.354,354.800 242.229 C 354.800 241.809,354.206 242.024,353.660 242.642 M347.260 249.042 C 346.531 249.866,347.000 250.257,347.781 249.476 C 348.121 249.136,348.400 248.754,348.400 248.629 C 348.400 248.209,347.806 248.424,347.260 249.042 M306.062 290.258 C 305.106 291.248,304.419 292.152,304.534 292.267 C 304.742 292.475,308.400 289.015,308.400 288.611 C 308.400 288.080,307.665 288.598,306.062 290.258 M300.063 296.259 C 298.887 297.469,298.019 298.553,298.134 298.667 C 298.340 298.873,302.800 294.611,302.800 294.209 C 302.800 293.660,302.022 294.243,300.063 296.259 M293.663 302.659 C 292.487 303.869,291.619 304.953,291.734 305.067 C 291.940 305.273,296.400 301.011,296.400 300.609 C 296.400 300.060,295.622 300.643,293.663 302.659 M256.866 339.466 C 238.973 357.396,224.423 372.156,224.533 372.267 C 224.730 372.464,290.000 307.394,290.000 307.001 C 290.000 306.344,286.435 309.837,256.866 339.466 M218.493 378.000 C 218.218 378.440,218.098 378.800,218.225 378.800 C 218.525 378.800,219.600 377.727,219.600 377.429 C 219.600 376.920,218.962 377.249,218.493 378.000 M196.826 389.431 C 197.354 390.068,198.000 390.186,198.000 389.647 C 198.000 389.452,197.630 389.196,197.177 389.078 C 196.502 388.902,196.439 388.965,196.826 389.431 " stroke="none" fill="#040404" fill-rule="evenodd"></path><path id="path1" d="M197.078 11.354 C 196.265 12.099,195.600 12.933,195.600 13.207 C 195.600 13.819,197.609 15.599,198.300 15.600 C 198.575 15.600,198.800 15.780,198.800 16.000 C 198.800 16.939,200.893 16.334,202.213 15.013 C 203.720 13.507,204.007 12.126,202.900 11.715 C 202.515 11.572,201.909 11.128,201.553 10.728 C 200.523 9.569,198.757 9.816,197.078 11.354 M98.467 105.866 C 48.013 156.356,6.809 197.742,6.902 197.835 C 7.191 198.124,23.165 189.235,38.600 180.196 C 40.580 179.037,53.630 171.560,67.600 163.582 C 81.570 155.603,97.464 146.493,102.920 143.338 C 108.377 140.182,112.916 137.600,113.009 137.600 C 113.101 137.600,114.577 136.767,116.288 135.749 C 118.000 134.730,119.940 133.588,120.600 133.211 C 145.435 119.016,166.507 106.962,174.912 102.142 C 180.804 98.764,185.979 96.000,186.412 96.000 C 187.311 96.000,187.699 303.645,186.801 304.199 C 186.443 304.421,177.804 299.545,130.600 272.481 C 123.120 268.193,116.190 264.237,115.200 263.690 C 114.210 263.143,111.780 261.750,109.800 260.595 C 107.820 259.440,105.570 258.140,104.800 257.706 C 104.030 257.272,99.170 254.490,94.000 251.525 C 88.830 248.560,83.790 245.675,82.800 245.114 C 81.119 244.161,43.135 222.399,18.478 208.262 C 7.178 201.783,6.800 201.600,6.800 202.600 C 6.800 202.930,47.930 244.330,98.200 294.600 C 190.752 387.152,191.600 387.977,191.600 385.400 C 191.600 385.070,191.735 384.799,191.900 384.798 C 192.065 384.796,193.416 383.664,194.901 382.282 L 197.603 379.768 197.501 199.556 C 197.392 4.963,197.528 18.000,195.603 18.000 C 195.353 18.000,194.271 17.100,193.200 16.000 C 192.129 14.900,191.015 14.015,190.726 14.033 C 190.437 14.052,148.920 55.377,98.467 105.866 M207.600 15.200 C 207.050 15.847,206.404 16.381,206.164 16.388 C 205.924 16.395,204.934 17.165,203.964 18.100 L 202.200 19.800 202.301 200.041 L 202.403 380.283 204.767 382.241 C 206.067 383.319,207.232 384.572,207.355 385.027 C 207.906 387.062,210.507 387.217,211.395 385.267 C 211.612 384.790,212.028 384.400,212.318 384.400 C 212.616 384.400,212.723 384.198,212.562 383.938 C 212.394 383.666,212.451 383.584,212.701 383.739 C 213.138 384.009,217.336 379.902,218.393 378.171 C 218.719 377.637,219.203 377.200,219.470 377.200 C 219.959 377.200,224.071 373.082,224.350 372.313 C 224.432 372.086,262.813 333.587,309.640 286.759 C 370.663 225.735,394.847 201.304,395.017 200.509 C 395.221 199.556,395.180 199.488,394.727 200.021 C 394.313 200.510,378.021 210.009,366.800 216.304 C 365.810 216.860,363.290 218.303,361.200 219.511 C 359.110 220.720,356.410 222.250,355.200 222.912 C 353.990 223.574,352.820 224.250,352.600 224.415 C 352.380 224.580,351.525 225.094,350.700 225.557 C 349.875 226.021,348.525 226.779,347.700 227.243 C 346.875 227.706,346.020 228.220,345.800 228.385 C 345.580 228.550,344.410 229.224,343.200 229.883 C 341.990 230.543,340.325 231.469,339.500 231.941 C 338.675 232.413,337.370 233.160,336.600 233.600 C 333.135 235.580,332.476 235.962,330.482 237.144 C 329.318 237.835,328.266 238.400,328.144 238.400 C 328.023 238.400,327.446 238.733,326.862 239.139 C 326.278 239.545,324.810 240.420,323.600 241.082 C 322.390 241.744,320.320 242.917,319.000 243.688 C 317.680 244.460,315.790 245.544,314.800 246.098 C 313.810 246.651,308.860 249.487,303.800 252.400 C 298.740 255.313,293.790 258.152,292.800 258.709 C 291.810 259.265,286.770 262.145,281.600 265.109 C 276.430 268.072,271.570 270.854,270.800 271.291 C 270.030 271.728,269.220 272.220,269.000 272.385 C 268.780 272.550,267.610 273.230,266.400 273.896 C 263.817 275.318,259.229 277.901,257.100 279.133 C 256.275 279.610,254.970 280.360,254.200 280.800 C 253.430 281.240,252.170 281.960,251.400 282.400 C 248.449 284.086,247.324 284.735,245.000 286.091 C 243.680 286.861,241.790 287.940,240.800 288.489 C 238.934 289.523,236.937 290.657,234.700 291.953 C 220.857 299.969,213.532 304.005,213.198 303.799 C 212.641 303.454,212.664 96.531,213.221 96.187 C 213.536 95.993,221.408 100.341,234.800 108.106 C 235.570 108.553,237.190 109.459,238.400 110.120 C 239.610 110.781,241.078 111.655,241.662 112.061 C 242.246 112.467,242.817 112.800,242.930 112.800 C 243.044 112.800,244.726 113.724,246.668 114.854 C 248.611 115.984,251.190 117.450,252.400 118.112 C 253.610 118.774,254.780 119.450,255.000 119.615 C 255.220 119.780,256.075 120.294,256.900 120.757 C 257.725 121.221,259.030 121.960,259.800 122.400 C 260.570 122.840,261.875 123.579,262.700 124.043 C 263.525 124.506,264.380 125.020,264.600 125.185 C 264.820 125.350,265.990 126.024,267.200 126.683 C 268.410 127.343,270.030 128.247,270.800 128.692 C 274.165 130.639,285.560 137.171,287.200 138.093 C 288.952 139.078,322.804 158.484,325.600 160.106 C 326.370 160.552,327.990 161.461,329.200 162.125 C 330.410 162.789,332.660 164.089,334.200 165.013 C 335.740 165.938,338.260 167.378,339.800 168.214 C 341.340 169.050,343.860 170.488,345.400 171.410 C 346.940 172.333,349.010 173.537,350.000 174.087 C 352.718 175.597,355.095 176.959,360.932 180.349 C 362.874 181.477,364.556 182.400,364.670 182.400 C 364.783 182.400,365.354 182.733,365.938 183.139 C 366.522 183.545,367.990 184.423,369.200 185.088 C 370.410 185.754,375.540 188.686,380.600 191.603 C 394.009 199.334,394.800 199.735,394.800 198.800 C 394.800 197.883,210.407 14.000,209.500 14.012 C 209.005 14.019,208.150 14.553,207.600 15.200 M247.800 162.000 L 246.600 162.305 248.000 162.305 C 248.770 162.305,249.940 162.168,250.600 162.000 L 251.800 161.695 250.400 161.695 C 249.630 161.695,248.460 161.832,247.800 162.000 M261.600 162.020 C 262.590 162.197,263.940 162.333,264.600 162.323 L 265.800 162.305 264.600 162.000 C 263.940 161.832,262.590 161.696,261.600 161.697 L 259.800 161.700 261.600 162.020 M134.000 162.800 C 132.052 162.966,133.875 163.060,139.200 163.067 C 144.702 163.074,146.544 162.982,144.800 162.786 C 141.735 162.441,138.151 162.446,134.000 162.800 M243.458 163.052 C 242.390 163.380,241.611 163.744,241.728 163.861 C 241.925 164.059,243.941 163.521,245.800 162.775 C 247.180 162.222,245.525 162.417,243.458 163.052 M267.000 162.800 C 267.440 162.989,268.250 163.138,268.800 163.132 L 269.800 163.120 268.800 162.800 C 268.250 162.624,267.440 162.474,267.000 162.468 L 266.200 162.456 267.000 162.800 M124.800 163.621 C 124.169 163.837,124.832 163.878,126.600 163.732 C 128.140 163.605,129.475 163.434,129.567 163.351 C 129.896 163.053,125.779 163.287,124.800 163.621 M149.800 163.623 C 151.937 164.065,153.404 164.050,152.000 163.600 C 151.450 163.424,150.370 163.283,149.600 163.286 L 148.200 163.292 149.800 163.623 M270.400 163.600 C 270.730 163.813,271.360 163.978,271.800 163.966 L 272.600 163.944 271.800 163.600 C 270.604 163.086,269.605 163.086,270.400 163.600 M120.700 164.432 C 120.315 164.656,120.003 165.056,120.006 165.320 C 120.011 165.678,120.087 165.682,120.307 165.337 C 120.469 165.083,121.231 164.694,122.001 164.473 C 123.159 164.141,123.227 164.068,122.400 164.048 C 121.850 164.035,121.085 164.208,120.700 164.432 M154.400 164.400 C 155.768 164.838,156.819 164.838,155.800 164.400 C 155.360 164.211,154.640 164.062,154.200 164.068 C 153.557 164.077,153.596 164.143,154.400 164.400 M274.358 164.808 C 275.325 165.253,276.205 165.528,276.314 165.420 C 276.521 165.212,275.286 164.681,273.600 164.253 C 273.050 164.113,273.391 164.363,274.358 164.808 M157.400 165.200 C 158.596 165.714,159.595 165.714,158.800 165.200 C 158.470 164.987,157.840 164.822,157.400 164.834 L 156.600 164.856 157.400 165.200 M237.465 165.447 C 236.840 165.786,236.406 166.139,236.500 166.233 C 236.687 166.420,239.200 165.246,239.200 164.971 C 239.200 164.662,238.618 164.822,237.465 165.447 M161.158 166.437 C 162.125 166.866,163.000 167.134,163.102 167.032 C 163.324 166.810,160.494 165.588,159.851 165.628 C 159.603 165.644,160.191 166.008,161.158 166.437 M233.769 167.700 C 231.450 169.231,226.943 173.609,225.635 175.600 C 224.895 176.727,225.016 176.651,226.258 175.209 C 228.839 172.210,231.691 169.551,233.900 168.083 C 235.774 166.837,236.285 166.400,235.869 166.400 C 235.796 166.400,234.851 166.985,233.769 167.700 M278.528 166.957 C 278.673 167.335,278.524 168.287,278.196 169.071 C 277.345 171.108,277.514 171.713,278.400 169.800 C 279.276 167.908,279.373 166.954,278.732 166.558 C 278.414 166.362,278.349 166.490,278.528 166.957 M165.756 168.524 C 171.193 171.952,173.457 173.850,176.344 177.400 C 177.059 178.280,177.468 178.640,177.253 178.200 C 176.108 175.865,170.865 171.061,167.077 168.878 C 165.503 167.971,164.416 167.679,165.756 168.524 M250.878 171.540 C 250.370 171.683,252.880 171.800,256.456 171.800 C 260.031 171.800,262.426 171.686,261.778 171.547 C 260.223 171.214,252.054 171.208,250.878 171.540 M131.100 172.432 C 130.208 172.952,129.993 231.433,130.880 232.320 C 131.144 232.584,132.179 232.770,133.180 232.733 L 135.000 232.666 133.405 232.503 C 130.612 232.218,130.800 234.398,130.800 202.341 L 130.800 173.180 131.900 172.750 C 132.611 172.471,135.967 172.376,141.400 172.481 C 146.020 172.569,149.080 172.508,148.200 172.344 C 145.759 171.890,131.909 171.961,131.100 172.432 M247.600 172.400 C 246.805 172.914,247.804 172.914,249.000 172.400 L 249.800 172.056 249.000 172.034 C 248.560 172.022,247.930 172.187,247.600 172.400 M264.400 172.400 C 264.950 172.576,265.760 172.726,266.200 172.732 L 267.000 172.744 266.200 172.400 C 265.760 172.211,264.950 172.062,264.400 172.068 L 263.400 172.080 264.400 172.400 M150.800 173.200 C 151.350 173.376,152.160 173.526,152.600 173.532 L 153.400 173.544 152.600 173.200 C 152.160 173.011,151.350 172.862,150.800 172.868 L 149.800 172.880 150.800 173.200 M243.400 174.095 C 240.930 175.406,234.389 181.508,234.413 182.479 C 234.420 182.766,234.810 182.460,235.281 181.800 C 237.310 178.954,241.108 175.680,244.024 174.261 C 245.661 173.465,246.730 172.815,246.400 172.817 C 246.070 172.820,244.720 173.395,243.400 174.095 M267.800 173.200 C 268.996 173.714,269.995 173.714,269.200 173.200 C 268.870 172.987,268.240 172.822,267.800 172.834 L 267.000 172.856 267.800 173.200 M154.000 174.000 C 154.330 174.213,154.870 174.388,155.200 174.388 C 155.733 174.388,155.733 174.345,155.200 174.000 C 154.870 173.787,154.330 173.612,154.000 173.612 C 153.467 173.612,153.467 173.655,154.000 174.000 M276.067 174.780 C 275.833 175.451,275.727 176.000,275.831 176.000 C 276.101 176.000,276.856 173.922,276.657 173.724 C 276.567 173.633,276.301 174.108,276.067 174.780 M157.368 175.214 C 158.231 175.645,159.023 175.910,159.130 175.804 C 159.327 175.606,156.678 174.387,156.113 174.416 C 155.941 174.425,156.506 174.784,157.368 175.214 M273.200 175.200 C 273.970 175.622,274.780 175.966,275.000 175.966 C 275.220 175.966,274.770 175.622,274.000 175.200 C 273.230 174.778,272.420 174.434,272.200 174.434 C 271.980 174.434,272.430 174.778,273.200 175.200 M159.600 176.133 C 159.600 176.221,160.275 176.748,161.100 177.304 C 164.441 179.555,167.419 183.035,169.047 186.591 C 169.617 187.834,170.166 188.768,170.268 188.665 C 170.595 188.339,168.348 184.277,166.537 181.921 C 164.484 179.249,159.600 175.174,159.600 176.133 M224.099 177.700 C 223.487 178.467,222.254 181.054,222.717 180.600 C 223.194 180.132,224.854 177.200,224.642 177.200 C 224.563 177.200,224.318 177.425,224.099 177.700 M179.096 181.865 C 179.923 183.441,180.657 184.674,180.727 184.605 C 180.903 184.430,179.002 180.774,178.228 179.800 C 177.878 179.360,178.269 180.289,179.096 181.865 M221.455 182.655 C 221.076 183.449,220.853 184.186,220.959 184.293 C 221.066 184.399,221.436 183.809,221.782 182.982 C 222.598 181.029,222.349 180.780,221.455 182.655 M233.531 184.100 C 232.771 185.321,231.939 187.272,232.107 187.441 C 232.183 187.516,232.727 186.593,233.318 185.389 C 234.420 183.141,234.526 182.504,233.531 184.100 M219.800 186.800 C 219.425 187.929,219.204 188.937,219.308 189.041 C 219.412 189.146,219.801 188.304,220.171 187.171 C 220.542 186.039,220.763 185.030,220.663 184.930 C 220.563 184.830,220.175 185.671,219.800 186.800 M181.058 186.000 C 181.569 187.995,182.344 189.804,182.342 189.000 C 182.341 188.560,181.994 187.480,181.571 186.600 C 181.148 185.720,180.917 185.450,181.058 186.000 M218.622 191.022 C 218.472 191.825,218.438 192.572,218.548 192.682 C 218.658 192.792,218.872 192.225,219.022 191.422 C 219.173 190.619,219.206 189.873,219.096 189.763 C 218.986 189.653,218.773 190.219,218.622 191.022 M182.468 190.600 C 182.474 191.040,182.624 191.850,182.800 192.400 L 183.120 193.400 183.132 192.400 C 183.138 191.850,182.989 191.040,182.800 190.600 L 182.456 189.800 182.468 190.600 M230.649 191.015 C 230.512 191.373,230.416 192.056,230.436 192.533 C 230.462 193.147,230.585 193.008,230.859 192.056 C 231.257 190.672,231.094 189.858,230.649 191.015 M171.268 192.400 C 171.262 192.950,171.411 193.760,171.600 194.200 L 171.944 195.000 171.932 194.200 C 171.926 193.760,171.776 192.950,171.600 192.400 L 171.280 191.400 171.268 192.400 M217.886 195.000 C 217.733 195.880,217.631 197.590,217.658 198.800 C 217.703 200.842,217.731 200.771,218.053 197.800 C 218.434 194.285,218.325 192.464,217.886 195.000 M229.869 194.756 C 229.721 195.495,229.621 196.663,229.647 197.350 C 229.679 198.212,229.805 197.925,230.055 196.423 C 230.453 194.021,230.297 192.617,229.869 194.756 M183.400 202.581 C 183.400 207.386,183.525 210.615,183.677 209.758 C 184.018 207.840,184.000 196.639,183.653 195.023 C 183.514 194.375,183.400 197.776,183.400 202.581 M172.184 202.397 C 172.186 206.389,172.309 208.708,172.471 207.797 C 172.832 205.761,172.826 199.546,172.460 197.200 C 172.296 196.144,172.182 198.293,172.184 202.397 M4.400 200.400 C 4.400 200.840,4.580 201.200,4.800 201.200 C 5.020 201.200,5.200 200.840,5.200 200.400 C 5.200 199.960,5.020 199.600,4.800 199.600 C 4.580 199.600,4.400 199.960,4.400 200.400 M229.309 202.400 C 229.309 203.390,229.387 203.795,229.482 203.300 C 229.578 202.805,229.578 201.995,229.482 201.500 C 229.387 201.005,229.309 201.410,229.309 202.400 M268.588 203.300 C 268.486 203.575,268.356 210.100,268.301 217.800 L 268.200 231.800 266.800 232.277 C 265.700 232.652,265.599 232.760,266.326 232.777 C 268.898 232.840,268.800 233.440,268.800 217.586 L 268.800 203.200 273.957 203.200 C 278.291 203.200,279.153 203.301,279.357 203.833 C 279.677 204.666,279.580 237.058,279.253 238.564 C 279.052 239.490,278.672 239.830,277.400 240.222 C 276.520 240.494,276.121 240.735,276.513 240.758 C 276.905 240.781,277.850 240.539,278.613 240.220 L 280.000 239.641 280.000 221.463 C 280.000 205.257,279.931 203.259,279.367 203.043 C 278.086 202.551,268.785 202.773,268.588 203.300 M217.623 206.633 C 217.636 207.935,217.804 209.720,217.996 210.600 C 218.239 211.712,218.278 211.041,218.122 208.400 C 217.868 204.084,217.589 203.094,217.623 206.633 M229.640 208.233 C 229.662 209.095,229.833 210.250,230.021 210.800 C 230.242 211.448,230.280 210.955,230.131 209.400 C 229.863 206.620,229.582 205.951,229.640 208.233 M171.422 211.422 C 171.272 212.225,171.238 212.972,171.348 213.082 C 171.458 213.192,171.672 212.625,171.822 211.822 C 171.973 211.019,172.006 210.273,171.896 210.163 C 171.786 210.053,171.573 210.619,171.422 211.422 M182.600 213.200 C 182.448 213.891,182.414 214.547,182.524 214.657 C 182.634 214.767,182.848 214.291,183.000 213.600 C 183.152 212.909,183.186 212.253,183.076 212.143 C 182.966 212.033,182.752 212.509,182.600 213.200 M230.446 213.200 C 230.427 213.750,230.587 214.470,230.800 214.800 C 231.294 215.564,231.294 214.742,230.800 213.200 L 230.480 212.200 230.446 213.200 M218.468 213.400 C 218.474 213.840,218.624 214.650,218.800 215.200 L 219.120 216.200 219.132 215.200 C 219.138 214.650,218.989 213.840,218.800 213.400 L 218.456 212.600 218.468 213.400 M170.277 215.477 C 169.464 217.947,169.708 218.191,170.615 215.815 C 171.000 214.807,171.223 213.890,171.110 213.777 C 170.997 213.664,170.622 214.429,170.277 215.477 M181.800 216.400 C 181.650 216.873,181.617 217.350,181.727 217.460 C 181.837 217.570,182.050 217.273,182.200 216.800 C 182.350 216.327,182.383 215.850,182.273 215.740 C 182.163 215.630,181.950 215.927,181.800 216.400 M219.256 216.800 C 219.256 217.130,219.411 217.760,219.600 218.200 C 219.817 218.704,219.944 218.778,219.944 218.400 C 219.944 218.070,219.789 217.440,219.600 217.000 C 219.383 216.496,219.256 216.422,219.256 216.800 M168.942 218.643 C 167.795 221.782,162.873 226.853,159.047 228.836 C 156.436 230.190,155.701 230.861,157.848 229.931 C 162.324 227.992,170.743 219.410,169.445 218.111 C 169.320 217.987,169.094 218.226,168.942 218.643 M179.538 221.962 C 176.357 228.519,172.073 232.871,165.130 236.599 C 163.299 237.582,162.007 238.390,162.259 238.393 C 164.890 238.432,173.597 231.714,177.284 226.800 C 178.583 225.069,181.715 218.923,181.533 218.462 C 181.460 218.276,180.562 219.851,179.538 221.962 M232.000 218.138 C 232.000 218.654,233.695 222.011,234.074 222.246 C 234.283 222.375,233.971 221.518,233.379 220.340 C 232.249 218.090,232.000 217.693,232.000 218.138 M220.027 219.541 C 219.978 220.514,223.143 226.818,224.954 229.356 C 227.950 233.554,236.871 240.863,237.829 239.904 C 237.941 239.792,237.080 239.208,235.916 238.607 C 229.079 235.071,224.913 230.044,220.494 220.000 C 220.252 219.450,220.042 219.243,220.027 219.541 M234.822 223.600 C 236.490 226.873,245.007 232.878,247.829 232.771 C 248.253 232.755,247.691 232.418,246.579 232.022 C 243.148 230.800,236.848 226.712,236.784 225.666 C 236.775 225.520,236.215 224.770,235.540 224.000 C 234.615 222.945,234.438 222.847,234.822 223.600 M154.200 230.789 C 153.760 230.974,152.770 231.317,152.000 231.553 L 150.600 231.982 152.187 231.756 C 153.863 231.518,156.624 230.469,155.600 230.460 C 155.270 230.457,154.640 230.605,154.200 230.789 M146.000 232.400 L 144.200 232.680 146.200 232.693 C 147.300 232.700,148.740 232.568,149.400 232.400 L 150.600 232.095 149.200 232.107 C 148.430 232.114,146.990 232.246,146.000 232.400 M249.600 233.183 C 250.574 233.511,255.099 233.747,254.767 233.452 C 254.675 233.371,253.250 233.201,251.600 233.075 C 249.754 232.934,248.985 232.975,249.600 233.183 M260.400 233.200 L 258.200 233.470 260.600 233.487 C 261.920 233.497,263.540 233.368,264.200 233.200 L 265.400 232.895 264.000 232.913 C 263.230 232.922,261.610 233.052,260.400 233.200 M159.000 239.200 C 157.900 239.606,157.270 239.949,157.600 239.963 C 158.304 239.992,161.062 239.071,161.459 238.674 C 161.887 238.246,161.170 238.399,159.000 239.200 M120.066 240.000 C 120.174 240.330,120.788 240.632,121.431 240.672 C 122.165 240.717,122.303 240.664,121.800 240.529 C 121.360 240.411,120.746 240.108,120.435 239.857 C 119.991 239.498,119.912 239.528,120.066 240.000 M154.800 240.400 L 153.800 240.720 154.800 240.754 C 155.350 240.773,156.070 240.613,156.400 240.400 C 157.164 239.906,156.342 239.906,154.800 240.400 M239.924 240.820 C 240.872 241.277,241.862 241.575,242.124 241.482 C 242.386 241.389,241.970 241.127,241.200 240.900 C 240.430 240.673,239.440 240.375,239.000 240.238 C 238.560 240.102,238.976 240.364,239.924 240.820 M123.800 241.200 C 124.240 241.389,125.320 241.536,126.200 241.526 L 127.800 241.508 126.200 241.177 C 125.320 240.995,124.240 240.848,123.800 240.851 L 123.000 240.856 123.800 241.200 M150.600 241.200 L 149.400 241.505 150.600 241.513 C 151.260 241.517,152.250 241.376,152.800 241.200 L 153.800 240.880 152.800 240.887 C 152.250 240.891,151.260 241.032,150.600 241.200 M273.000 241.200 L 272.200 241.544 273.000 241.532 C 273.440 241.526,274.250 241.376,274.800 241.200 L 275.800 240.880 274.800 240.868 C 274.250 240.862,273.440 241.011,273.000 241.200 M131.200 242.055 C 134.092 242.404,144.908 242.415,147.200 242.070 C 148.190 241.922,144.500 241.798,139.000 241.795 C 133.500 241.792,129.990 241.909,131.200 242.055 M243.200 242.000 C 243.530 242.213,244.160 242.388,244.600 242.388 C 245.262 242.388,245.297 242.321,244.800 242.000 C 244.470 241.787,243.840 241.612,243.400 241.612 C 242.738 241.612,242.703 241.679,243.200 242.000 M268.200 242.000 L 267.000 242.305 268.200 242.305 C 268.860 242.305,269.940 242.168,270.600 242.000 L 271.800 241.695 270.600 241.695 C 269.940 241.695,268.860 241.832,268.200 242.000 M246.600 242.800 C 247.260 242.968,248.520 243.106,249.400 243.107 L 251.000 243.108 249.400 242.777 C 248.520 242.595,247.260 242.457,246.600 242.470 L 245.400 242.495 246.600 242.800 M261.200 242.800 L 259.400 243.080 261.200 243.110 C 262.190 243.127,263.810 242.997,264.800 242.820 L 266.600 242.500 264.800 242.510 C 263.810 242.516,262.190 242.646,261.200 242.800 M197.391 386.188 C 195.427 387.966,195.435 389.126,197.412 389.187 C 197.638 389.194,198.083 389.560,198.400 390.000 C 199.254 391.186,200.647 390.980,202.186 389.440 C 203.836 387.791,203.721 387.007,201.612 385.500 C 199.642 384.093,199.720 384.080,197.391 386.188 " stroke="none" fill="#737373" fill-rule="evenodd"></path><path id="path2" d="M174.800 102.936 C 168.530 106.528,161.799 110.397,159.843 111.534 C 157.886 112.670,156.251 113.600,156.209 113.600 C 156.142 113.600,148.202 118.132,145.000 119.998 C 144.340 120.382,133.180 126.776,120.200 134.206 C 89.571 151.737,70.680 162.567,66.243 165.139 C 64.286 166.272,62.618 167.200,62.536 167.200 C 62.454 167.200,61.084 167.987,59.493 168.949 C 57.902 169.911,54.530 171.869,52.000 173.301 C 46.381 176.480,47.741 175.702,29.800 186.005 C 11.036 196.779,10.483 197.093,8.800 197.916 C 8.030 198.292,7.287 198.754,7.150 198.943 C 7.012 199.131,6.490 199.156,5.989 198.997 C 5.241 198.759,5.125 198.828,5.339 199.387 C 5.483 199.760,5.600 200.315,5.600 200.620 C 5.600 200.925,5.838 201.084,6.128 200.972 C 6.419 200.861,17.714 207.100,31.228 214.838 C 44.743 222.576,56.790 229.449,58.000 230.111 C 59.210 230.773,60.380 231.450,60.600 231.615 C 60.820 231.780,61.720 232.324,62.600 232.825 C 63.480 233.325,65.415 234.425,66.900 235.267 C 72.873 238.658,76.096 240.502,103.800 256.386 C 119.640 265.468,133.410 273.351,134.400 273.903 C 135.390 274.456,138.540 276.262,141.400 277.917 C 144.260 279.571,147.230 281.279,148.000 281.711 C 148.770 282.144,151.838 283.898,154.817 285.610 C 157.796 287.322,161.126 289.214,162.217 289.815 C 163.308 290.416,164.380 291.039,164.600 291.200 C 164.820 291.361,165.810 291.946,166.800 292.499 C 167.790 293.052,172.560 295.768,177.400 298.534 L 186.200 303.563 186.301 251.781 C 186.357 223.302,186.357 176.691,186.301 148.202 L 186.200 96.404 174.800 102.936 M147.800 162.614 C 165.770 164.852,177.941 173.360,182.084 186.580 C 189.486 210.198,180.385 232.629,160.600 239.532 C 150.752 242.968,132.854 243.866,122.600 241.438 C 122.160 241.333,121.305 241.144,120.700 241.016 L 119.600 240.785 119.600 202.606 C 119.600 159.597,119.241 163.987,122.800 163.424 C 131.004 162.125,141.220 161.794,147.800 162.614 M250.400 162.428 C 244.255 163.362,241.022 164.473,235.287 167.622 C 228.117 171.558,221.608 181.473,219.150 192.200 C 218.421 195.383,218.401 210.107,219.122 213.200 C 222.224 226.507,227.843 234.315,237.781 239.128 C 246.907 243.549,259.889 243.800,276.900 239.886 L 278.800 239.449 278.800 221.524 L 278.800 203.600 274.000 203.600 L 269.200 203.600 269.194 217.700 C 269.187 233.833,269.478 232.564,265.591 233.375 C 243.259 238.034,229.087 226.093,229.066 202.600 C 229.046 180.488,242.442 167.807,262.227 171.208 C 266.871 172.007,270.681 173.115,273.204 174.402 C 275.547 175.597,275.146 175.994,277.353 170.296 C 278.642 166.967,278.704 167.371,276.755 166.377 C 270.579 163.226,257.773 161.307,250.400 162.428 M132.300 173.048 C 131.642 173.246,131.600 175.001,131.600 202.571 L 131.600 231.883 136.145 232.154 C 159.800 233.569,171.646 223.729,171.725 202.600 C 171.763 192.292,169.560 185.929,164.020 180.354 C 160.659 176.972,157.611 175.352,151.600 173.754 C 149.398 173.169,133.796 172.598,132.300 173.048 " stroke="none" fill="#fbfbfb" fill-rule="evenodd"></path><path id="path3" d="M183.896 96.950 C 181.975 98.131,181.438 98.689,183.000 97.881 C 184.254 97.233,185.945 96.026,185.600 96.025 C 185.490 96.025,184.723 96.441,183.896 96.950 M178.900 99.829 C 177.525 100.609,176.400 101.339,176.400 101.453 C 176.400 101.674,180.748 99.306,181.380 98.740 C 182.084 98.110,181.413 98.405,178.900 99.829 M174.700 102.229 C 173.205 103.040,173.296 103.378,174.800 102.600 C 175.460 102.259,176.000 101.894,176.000 101.790 C 176.000 101.532,175.957 101.547,174.700 102.229 M171.900 103.829 C 170.405 104.640,170.496 104.978,172.000 104.200 C 172.660 103.859,173.200 103.494,173.200 103.390 C 173.200 103.132,173.157 103.147,171.900 103.829 M167.700 106.229 C 166.325 107.009,165.200 107.739,165.200 107.853 C 165.200 108.074,169.548 105.706,170.180 105.140 C 170.884 104.510,170.213 104.805,167.700 106.229 M163.500 108.629 C 162.005 109.440,162.096 109.778,163.600 109.000 C 164.260 108.659,164.800 108.294,164.800 108.190 C 164.800 107.932,164.757 107.947,163.500 108.629 M160.700 110.229 C 160.095 110.557,159.600 110.910,159.600 111.013 C 159.600 111.399,160.232 111.157,161.200 110.400 C 162.389 109.470,162.211 109.409,160.700 110.229 M157.900 111.829 C 156.405 112.640,156.496 112.978,158.000 112.200 C 158.660 111.859,159.200 111.494,159.200 111.390 C 159.200 111.132,159.157 111.147,157.900 111.829 M155.100 113.429 C 153.605 114.240,153.696 114.578,155.200 113.800 C 155.860 113.459,156.400 113.094,156.400 112.990 C 156.400 112.732,156.357 112.747,155.100 113.429 M152.300 115.029 C 150.805 115.840,150.896 116.178,152.400 115.400 C 153.060 115.059,153.600 114.694,153.600 114.590 C 153.600 114.332,153.557 114.347,152.300 115.029 M149.500 116.629 C 148.005 117.440,148.096 117.778,149.600 117.000 C 150.260 116.659,150.800 116.294,150.800 116.190 C 150.800 115.932,150.757 115.947,149.500 116.629 M146.700 118.229 C 145.205 119.040,145.296 119.378,146.800 118.600 C 147.460 118.259,148.000 117.894,148.000 117.790 C 148.000 117.532,147.957 117.547,146.700 118.229 M143.900 119.829 C 143.295 120.157,142.800 120.510,142.800 120.613 C 142.800 120.999,143.432 120.757,144.400 120.000 C 145.589 119.070,145.411 119.009,143.900 119.829 M141.000 121.600 C 140.340 122.037,139.980 122.392,140.200 122.388 C 140.601 122.382,142.776 120.823,142.400 120.812 C 142.290 120.808,141.660 121.163,141.000 121.600 M138.300 123.029 C 137.695 123.357,137.200 123.710,137.200 123.813 C 137.200 124.199,137.832 123.957,138.800 123.200 C 139.989 122.270,139.811 122.209,138.300 123.029 M135.500 124.629 C 134.895 124.957,134.400 125.310,134.400 125.413 C 134.400 125.799,135.032 125.557,136.000 124.800 C 137.189 123.870,137.011 123.809,135.500 124.629 M132.700 126.229 C 131.205 127.040,131.296 127.378,132.800 126.600 C 133.460 126.259,134.000 125.894,134.000 125.790 C 134.000 125.532,133.957 125.547,132.700 126.229 M129.900 127.829 C 129.295 128.157,128.800 128.510,128.800 128.613 C 128.800 128.999,129.432 128.757,130.400 128.000 C 131.589 127.070,131.411 127.009,129.900 127.829 M127.100 129.429 C 125.605 130.240,125.696 130.578,127.200 129.800 C 127.860 129.459,128.400 129.094,128.400 128.990 C 128.400 128.732,128.357 128.747,127.100 129.429 M124.300 131.029 C 123.695 131.357,123.200 131.710,123.200 131.813 C 123.200 132.199,123.832 131.957,124.800 131.200 C 125.989 130.270,125.811 130.209,124.300 131.029 M121.400 132.733 C 118.230 134.548,116.400 135.693,116.400 135.861 C 116.400 136.073,120.580 133.743,122.034 132.721 C 123.279 131.846,122.939 131.852,121.400 132.733 M110.876 138.683 C 109.928 139.235,109.226 139.759,109.316 139.849 C 109.492 140.026,113.200 138.038,113.200 137.766 C 113.200 137.446,112.585 137.689,110.876 138.683 M107.500 140.629 C 106.895 140.957,106.400 141.310,106.400 141.413 C 106.400 141.799,107.032 141.557,108.000 140.800 C 109.189 139.870,109.011 139.809,107.500 140.629 M104.700 142.229 C 104.095 142.557,103.600 142.910,103.600 143.013 C 103.600 143.399,104.232 143.157,105.200 142.400 C 106.389 141.470,106.211 141.409,104.700 142.229 M98.725 145.728 C 96.374 147.097,94.304 148.380,94.125 148.580 C 93.946 148.779,94.610 148.487,95.600 147.930 C 100.222 145.331,103.200 143.549,103.200 143.382 C 103.200 143.115,103.346 143.039,98.725 145.728 M92.300 149.429 C 90.805 150.240,90.896 150.578,92.400 149.800 C 93.060 149.459,93.600 149.094,93.600 148.990 C 93.600 148.732,93.557 148.747,92.300 149.429 M89.500 151.029 C 88.005 151.840,88.096 152.178,89.600 151.400 C 90.260 151.059,90.800 150.694,90.800 150.590 C 90.800 150.332,90.757 150.347,89.500 151.029 M86.700 152.629 C 85.205 153.440,85.296 153.778,86.800 153.000 C 87.460 152.659,88.000 152.294,88.000 152.190 C 88.000 151.932,87.957 151.947,86.700 152.629 M83.900 154.229 C 82.405 155.040,82.496 155.378,84.000 154.600 C 84.660 154.259,85.200 153.894,85.200 153.790 C 85.200 153.532,85.157 153.547,83.900 154.229 M81.100 155.829 C 79.605 156.640,79.696 156.978,81.200 156.200 C 81.860 155.859,82.400 155.494,82.400 155.390 C 82.400 155.132,82.357 155.147,81.100 155.829 M78.300 157.429 C 76.805 158.240,76.896 158.578,78.400 157.800 C 79.060 157.459,79.600 157.094,79.600 156.990 C 79.600 156.732,79.557 156.747,78.300 157.429 M74.100 159.829 C 72.725 160.609,71.600 161.339,71.600 161.453 C 71.600 161.674,75.948 159.306,76.580 158.740 C 77.284 158.110,76.613 158.405,74.100 159.829 M69.900 162.229 C 68.405 163.040,68.496 163.378,70.000 162.600 C 70.660 162.259,71.200 161.894,71.200 161.790 C 71.200 161.532,71.157 161.547,69.900 162.229 M252.505 161.887 C 253.114 161.979,254.014 161.977,254.505 161.882 C 254.997 161.787,254.500 161.711,253.400 161.714 C 252.300 161.717,251.897 161.795,252.505 161.887 M256.900 161.887 C 257.505 161.978,258.495 161.978,259.100 161.887 C 259.705 161.795,259.210 161.720,258.000 161.720 C 256.790 161.720,256.295 161.795,256.900 161.887 M133.700 162.687 C 134.305 162.778,135.295 162.778,135.900 162.687 C 136.505 162.595,136.010 162.520,134.800 162.520 C 133.590 162.520,133.095 162.595,133.700 162.687 M143.500 162.682 C 143.995 162.778,144.805 162.778,145.300 162.682 C 145.795 162.587,145.390 162.509,144.400 162.509 C 143.410 162.509,143.005 162.587,143.500 162.682 M67.100 163.829 C 65.605 164.640,65.696 164.978,67.200 164.200 C 67.860 163.859,68.400 163.494,68.400 163.390 C 68.400 163.132,68.357 163.147,67.100 163.829 M120.047 164.543 C 119.718 164.940,119.624 175.223,119.700 202.643 L 119.804 240.200 119.902 202.520 C 119.994 167.116,120.042 164.815,120.700 164.432 C 121.085 164.208,121.197 164.019,120.949 164.012 C 120.701 164.005,120.295 164.245,120.047 164.543 M62.900 166.229 C 61.525 167.009,60.400 167.735,60.400 167.844 C 60.400 168.079,64.831 165.697,65.380 165.167 C 66.042 164.528,65.470 164.773,62.900 166.229 M58.700 168.629 C 58.095 168.957,57.600 169.310,57.600 169.413 C 57.600 169.799,58.232 169.557,59.200 168.800 C 60.389 167.870,60.211 167.809,58.700 168.629 M55.900 170.229 C 54.405 171.040,54.496 171.378,56.000 170.600 C 56.660 170.259,57.200 169.894,57.200 169.790 C 57.200 169.532,57.157 169.547,55.900 170.229 M53.100 171.829 C 52.495 172.157,52.000 172.510,52.000 172.613 C 52.000 172.999,52.632 172.757,53.600 172.000 C 54.789 171.070,54.611 171.009,53.100 171.829 M133.305 172.687 C 133.914 172.779,134.814 172.777,135.305 172.682 C 135.797 172.587,135.300 172.511,134.200 172.514 C 133.100 172.517,132.697 172.595,133.305 172.687 M144.305 172.683 C 144.802 172.779,145.522 172.775,145.905 172.675 C 146.287 172.575,145.880 172.496,145.000 172.501 C 144.120 172.505,143.807 172.587,144.305 172.683 M50.300 173.429 C 49.695 173.757,49.200 174.110,49.200 174.213 C 49.200 174.599,49.832 174.357,50.800 173.600 C 51.989 172.670,51.811 172.609,50.300 173.429 M130.990 202.400 C 130.990 218.570,131.039 225.185,131.100 217.100 C 131.160 209.015,131.160 195.785,131.100 187.700 C 131.039 179.615,130.990 186.230,130.990 202.400 M47.500 175.029 C 46.895 175.357,46.400 175.710,46.400 175.813 C 46.400 176.199,47.032 175.957,48.000 175.200 C 49.189 174.270,49.011 174.209,47.500 175.029 M44.700 176.629 C 44.095 176.957,43.600 177.310,43.600 177.413 C 43.600 177.799,44.232 177.557,45.200 176.800 C 46.389 175.870,46.211 175.809,44.700 176.629 M237.600 178.200 C 236.628 179.190,235.923 180.000,236.033 180.000 C 236.143 180.000,237.028 179.190,238.000 178.200 C 238.972 177.210,239.677 176.400,239.567 176.400 C 239.457 176.400,238.572 177.210,237.600 178.200 M41.900 178.229 C 41.295 178.557,40.800 178.910,40.800 179.013 C 40.800 179.399,41.432 179.157,42.400 178.400 C 43.589 177.470,43.411 177.409,41.900 178.229 M39.100 179.829 C 38.495 180.157,38.000 180.510,38.000 180.613 C 38.000 180.999,38.632 180.757,39.600 180.000 C 40.789 179.070,40.611 179.009,39.100 179.829 M32.898 183.465 C 31.082 184.491,29.660 185.393,29.737 185.470 C 29.894 185.628,36.400 182.003,36.400 181.757 C 36.400 181.494,36.309 181.539,32.898 183.465 M27.800 186.400 C 27.140 186.837,26.780 187.192,27.000 187.188 C 27.401 187.182,29.576 185.623,29.200 185.612 C 29.090 185.608,28.460 185.963,27.800 186.400 M18.108 191.892 C 13.657 194.453,10.076 196.609,10.150 196.683 C 10.303 196.836,25.596 188.144,26.180 187.572 C 26.910 186.857,26.144 187.267,18.108 191.892 M8.254 197.402 C 7.624 197.731,6.859 198.000,6.554 198.000 C 6.249 198.000,6.000 198.180,6.000 198.400 C 6.000 198.620,6.097 198.800,6.216 198.800 C 6.591 198.800,9.600 197.193,9.600 196.992 C 9.600 196.717,9.525 196.740,8.254 197.402 M229.293 199.600 C 229.293 200.370,229.375 200.685,229.476 200.300 C 229.576 199.915,229.576 199.285,229.476 198.900 C 229.375 198.515,229.293 198.830,229.293 199.600 M172.137 202.600 C 172.139 204.360,172.209 205.030,172.293 204.089 C 172.378 203.149,172.377 201.709,172.291 200.889 C 172.205 200.070,172.136 200.840,172.137 202.600 M217.714 202.600 C 217.717 203.700,217.795 204.103,217.887 203.495 C 217.979 202.886,217.977 201.986,217.882 201.495 C 217.787 201.003,217.711 201.500,217.714 202.600 M6.000 201.573 C 6.000 201.808,6.366 202.000,6.814 202.000 C 7.262 202.000,8.072 202.291,8.614 202.646 C 9.156 203.001,9.600 203.202,9.600 203.092 C 9.600 202.788,7.915 201.752,6.900 201.431 C 6.351 201.257,6.000 201.313,6.000 201.573 M11.800 204.296 C 12.020 204.525,13.280 205.301,14.600 206.021 C 15.920 206.741,16.820 207.148,16.600 206.925 C 16.380 206.702,15.120 205.926,13.800 205.200 C 12.480 204.474,11.580 204.067,11.800 204.296 M229.301 205.400 C 229.305 206.280,229.387 206.593,229.483 206.095 C 229.579 205.598,229.575 204.878,229.475 204.495 C 229.375 204.113,229.296 204.520,229.301 205.400 M279.383 220.800 C 279.383 230.150,279.436 233.975,279.500 229.300 C 279.564 224.625,279.564 216.975,279.500 212.300 C 279.436 207.625,279.383 211.450,279.383 220.800 M17.400 207.490 C 17.620 207.700,18.520 208.276,19.400 208.770 C 20.280 209.265,20.640 209.370,20.200 209.004 C 19.306 208.261,16.772 206.891,17.400 207.490 M21.600 210.022 C 22.633 210.726,25.200 212.025,25.200 211.842 C 25.200 211.633,21.605 209.597,21.250 209.606 C 21.112 209.609,21.270 209.796,21.600 210.022 M25.600 212.131 C 25.600 212.301,30.964 215.541,31.800 215.876 C 32.020 215.965,31.765 215.714,31.234 215.319 C 29.959 214.370,25.600 211.904,25.600 212.131 M32.620 216.335 C 33.219 216.863,37.600 219.228,37.600 219.023 C 37.600 218.802,32.870 216.000,32.499 216.000 C 32.356 216.000,32.411 216.151,32.620 216.335 M38.400 219.620 C 39.787 220.561,40.578 220.835,39.600 220.036 C 39.050 219.586,38.420 219.217,38.200 219.215 C 37.980 219.213,38.070 219.396,38.400 219.620 M40.800 220.990 C 40.800 221.094,41.385 221.465,42.100 221.814 L 43.400 222.448 42.400 221.633 C 41.437 220.848,40.800 220.592,40.800 220.990 M43.600 222.590 C 43.600 222.694,44.185 223.065,44.900 223.414 L 46.200 224.048 45.200 223.233 C 44.237 222.448,43.600 222.192,43.600 222.590 M163.978 225.100 L 162.600 226.600 164.100 225.222 C 165.496 223.938,165.784 223.600,165.478 223.600 C 165.412 223.600,164.737 224.275,163.978 225.100 M46.400 224.190 C 46.400 224.294,46.985 224.665,47.700 225.014 L 49.000 225.648 48.000 224.833 C 47.037 224.048,46.400 223.792,46.400 224.190 M49.200 225.790 C 49.200 225.894,49.785 226.265,50.500 226.614 L 51.800 227.248 50.800 226.433 C 49.837 225.648,49.200 225.392,49.200 225.790 M52.400 227.620 C 53.787 228.561,54.578 228.835,53.600 228.036 C 53.050 227.586,52.420 227.217,52.200 227.215 C 51.980 227.213,52.070 227.396,52.400 227.620 M54.800 228.979 C 54.800 229.089,55.340 229.459,56.000 229.800 C 56.660 230.141,57.200 230.331,57.200 230.221 C 57.200 230.111,56.660 229.741,56.000 229.400 C 55.340 229.059,54.800 228.869,54.800 228.979 M173.381 231.300 L 171.800 233.000 173.500 231.419 C 175.081 229.948,175.384 229.600,175.081 229.600 C 175.016 229.600,174.251 230.365,173.381 231.300 M58.000 230.820 C 59.387 231.761,60.178 232.035,59.200 231.236 C 58.650 230.786,58.020 230.417,57.800 230.415 C 57.580 230.413,57.670 230.596,58.000 230.820 M228.783 233.300 C 229.764 234.345,230.619 235.200,230.683 235.200 C 230.984 235.200,230.666 234.841,228.900 233.183 L 227.000 231.400 228.783 233.300 M60.400 232.190 C 60.400 232.294,60.985 232.665,61.700 233.014 L 63.000 233.648 62.000 232.833 C 61.037 232.048,60.400 231.792,60.400 232.190 M137.100 232.696 C 138.475 232.774,140.725 232.774,142.100 232.696 C 143.475 232.618,142.350 232.554,139.600 232.554 C 136.850 232.554,135.725 232.618,137.100 232.696 M63.200 233.779 C 63.200 233.889,63.740 234.259,64.400 234.600 C 65.060 234.941,65.600 235.131,65.600 235.021 C 65.600 234.911,65.060 234.541,64.400 234.200 C 63.740 233.859,63.200 233.669,63.200 233.779 M255.300 233.887 C 255.905 233.978,256.895 233.978,257.500 233.887 C 258.105 233.795,257.610 233.720,256.400 233.720 C 255.190 233.720,254.695 233.795,255.300 233.887 M66.000 235.379 C 66.000 235.489,66.540 235.859,67.200 236.200 C 67.860 236.541,68.400 236.731,68.400 236.621 C 68.400 236.511,67.860 236.141,67.200 235.800 C 66.540 235.459,66.000 235.269,66.000 235.379 M68.800 236.979 C 68.800 237.089,69.340 237.459,70.000 237.800 C 70.660 238.141,71.200 238.331,71.200 238.221 C 71.200 238.111,70.660 237.741,70.000 237.400 C 69.340 237.059,68.800 236.869,68.800 236.979 M71.600 238.590 C 71.600 238.694,72.185 239.065,72.900 239.414 L 74.200 240.048 73.200 239.233 C 72.237 238.448,71.600 238.192,71.600 238.590 M74.400 240.179 C 74.400 240.289,74.940 240.659,75.600 241.000 C 76.260 241.341,76.800 241.531,76.800 241.421 C 76.800 241.311,76.260 240.941,75.600 240.600 C 74.940 240.259,74.400 240.069,74.400 240.179 M77.200 241.779 C 77.200 241.889,77.740 242.259,78.400 242.600 C 79.060 242.941,79.600 243.131,79.600 243.021 C 79.600 242.911,79.060 242.541,78.400 242.200 C 77.740 241.859,77.200 241.669,77.200 241.779 M251.500 243.082 C 251.995 243.178,252.805 243.178,253.300 243.082 C 253.795 242.987,253.390 242.909,252.400 242.909 C 251.410 242.909,251.005 242.987,251.500 243.082 M256.307 243.090 C 257.026 243.179,258.106 243.177,258.707 243.086 C 259.308 242.995,258.720 242.922,257.400 242.924 C 256.080 242.926,255.588 243.001,256.307 243.090 M80.800 243.967 C 81.763 244.752,82.400 245.008,82.400 244.610 C 82.400 244.506,81.815 244.135,81.100 243.786 L 79.800 243.152 80.800 243.967 M82.800 244.979 C 82.800 245.089,83.340 245.459,84.000 245.800 C 84.660 246.141,85.200 246.331,85.200 246.221 C 85.200 246.111,84.660 245.741,84.000 245.400 C 83.340 245.059,82.800 244.869,82.800 244.979 M85.600 246.527 C 85.600 246.705,90.216 249.455,92.700 250.757 C 94.621 251.763,93.477 250.807,91.300 249.587 C 90.035 248.878,88.235 247.854,87.300 247.311 C 86.365 246.768,85.600 246.415,85.600 246.527 M94.200 251.496 C 94.420 251.725,95.680 252.501,97.000 253.221 C 98.320 253.941,99.220 254.348,99.000 254.125 C 98.780 253.902,97.520 253.126,96.200 252.400 C 94.880 251.674,93.980 251.267,94.200 251.496 M99.600 254.515 C 99.600 254.827,104.489 257.645,104.687 257.447 C 104.787 257.347,104.448 257.046,103.934 256.777 C 103.420 256.509,102.235 255.848,101.300 255.307 C 100.365 254.766,99.600 254.410,99.600 254.515 M106.800 258.820 C 108.187 259.761,108.978 260.035,108.000 259.236 C 107.450 258.786,106.820 258.417,106.600 258.415 C 106.380 258.413,106.470 258.596,106.800 258.820 M109.420 260.340 C 110.059 260.912,114.400 263.273,114.400 263.049 C 114.400 262.933,113.310 262.200,111.979 261.419 C 109.657 260.058,108.613 259.618,109.420 260.340 M116.600 264.290 C 116.820 264.500,117.720 265.076,118.600 265.570 C 119.480 266.065,119.840 266.170,119.400 265.804 C 118.506 265.061,115.972 263.691,116.600 264.290 M120.800 266.820 C 122.187 267.761,122.978 268.035,122.000 267.236 C 121.450 266.786,120.820 266.417,120.600 266.415 C 120.380 266.413,120.470 266.596,120.800 266.820 M123.200 268.190 C 123.200 268.294,123.785 268.665,124.500 269.014 L 125.800 269.648 124.800 268.833 C 123.837 268.048,123.200 267.792,123.200 268.190 M126.000 269.779 C 126.000 269.889,126.540 270.259,127.200 270.600 C 127.860 270.941,128.400 271.131,128.400 271.021 C 128.400 270.911,127.860 270.541,127.200 270.200 C 126.540 269.859,126.000 269.669,126.000 269.779 M129.200 271.620 C 130.587 272.561,131.378 272.835,130.400 272.036 C 129.850 271.586,129.220 271.217,129.000 271.215 C 128.780 271.213,128.870 271.396,129.200 271.620 M131.820 273.140 C 132.459 273.712,136.800 276.073,136.800 275.849 C 136.800 275.733,135.710 275.000,134.379 274.219 C 132.057 272.858,131.013 272.418,131.820 273.140 M137.200 276.190 C 137.200 276.294,137.785 276.665,138.500 277.014 L 139.800 277.648 138.800 276.833 C 137.837 276.048,137.200 275.792,137.200 276.190 M140.400 278.020 C 141.787 278.961,142.578 279.235,141.600 278.436 C 141.050 277.986,140.420 277.617,140.200 277.615 C 139.980 277.613,140.070 277.796,140.400 278.020 M142.800 279.379 C 142.800 279.489,143.340 279.859,144.000 280.200 C 144.660 280.541,145.200 280.731,145.200 280.621 C 145.200 280.511,144.660 280.141,144.000 279.800 C 143.340 279.459,142.800 279.269,142.800 279.379 M145.600 280.979 C 145.600 281.089,146.140 281.459,146.800 281.800 C 147.460 282.141,148.000 282.331,148.000 282.221 C 148.000 282.111,147.460 281.741,146.800 281.400 C 146.140 281.059,145.600 280.869,145.600 280.979 M148.400 282.590 C 148.400 282.694,148.985 283.065,149.700 283.414 L 151.000 284.048 150.000 283.233 C 149.037 282.448,148.400 282.192,148.400 282.590 M151.200 284.179 C 151.200 284.289,151.740 284.659,152.400 285.000 C 153.060 285.341,153.600 285.531,153.600 285.421 C 153.600 285.311,153.060 284.941,152.400 284.600 C 151.740 284.259,151.200 284.069,151.200 284.179 M154.000 285.779 C 154.000 285.889,154.540 286.259,155.200 286.600 C 155.860 286.941,156.400 287.131,156.400 287.021 C 156.400 286.911,155.860 286.541,155.200 286.200 C 154.540 285.859,154.000 285.669,154.000 285.779 M156.800 287.379 C 156.800 287.489,157.340 287.859,158.000 288.200 C 158.660 288.541,159.200 288.731,159.200 288.621 C 159.200 288.511,158.660 288.141,158.000 287.800 C 157.340 287.459,156.800 287.269,156.800 287.379 M159.600 288.979 C 159.600 289.089,160.140 289.459,160.800 289.800 C 161.460 290.141,162.000 290.331,162.000 290.221 C 162.000 290.111,161.460 289.741,160.800 289.400 C 160.140 289.059,159.600 288.869,159.600 288.979 M162.400 290.579 C 162.400 290.689,162.940 291.059,163.600 291.400 C 164.260 291.741,164.800 291.931,164.800 291.821 C 164.800 291.711,164.260 291.341,163.600 291.000 C 162.940 290.659,162.400 290.469,162.400 290.579 M165.400 292.296 C 165.620 292.525,166.880 293.301,168.200 294.021 C 169.520 294.741,170.420 295.148,170.200 294.925 C 169.980 294.702,168.720 293.926,167.400 293.200 C 166.080 292.474,165.180 292.067,165.400 292.296 M171.000 295.496 C 171.220 295.725,172.480 296.501,173.800 297.221 C 175.120 297.941,176.020 298.348,175.800 298.125 C 175.580 297.902,174.320 297.126,173.000 296.400 C 171.680 295.674,170.780 295.267,171.000 295.496 M176.400 298.579 C 176.400 298.689,176.940 299.059,177.600 299.400 C 178.260 299.741,178.800 299.931,178.800 299.821 C 178.800 299.711,178.260 299.341,177.600 299.000 C 176.940 298.659,176.400 298.469,176.400 298.579 M179.200 300.139 C 179.200 300.312,181.129 301.476,184.400 303.276 C 185.596 303.934,185.659 303.941,184.834 303.323 C 183.551 302.363,179.200 299.904,179.200 300.139 " stroke="none" fill="#acacac" fill-rule="evenodd"></path><path id="path4" d="M184.800 96.833 L 183.800 97.648 185.100 97.014 L 186.400 96.379 186.400 200.009 L 186.400 303.639 183.700 302.152 C 180.491 300.384,180.549 300.659,183.797 302.615 C 186.416 304.192,186.622 304.241,186.959 303.361 C 187.275 302.538,187.269 97.444,186.953 96.621 C 186.634 95.789,186.004 95.851,184.800 96.833 M182.300 98.229 C 180.805 99.040,180.896 99.378,182.400 98.600 C 183.060 98.259,183.600 97.894,183.600 97.790 C 183.600 97.532,183.557 97.547,182.300 98.229 M179.500 99.829 C 178.005 100.640,178.096 100.978,179.600 100.200 C 180.260 99.859,180.800 99.494,180.800 99.390 C 180.800 99.132,180.757 99.147,179.500 99.829 M176.700 101.429 C 175.205 102.240,175.296 102.578,176.800 101.800 C 177.460 101.459,178.000 101.094,178.000 100.990 C 178.000 100.732,177.957 100.747,176.700 101.429 M173.900 103.029 C 172.405 103.840,172.496 104.178,174.000 103.400 C 174.660 103.059,175.200 102.694,175.200 102.590 C 175.200 102.332,175.157 102.347,173.900 103.029 M171.100 104.629 C 169.605 105.440,169.696 105.778,171.200 105.000 C 171.860 104.659,172.400 104.294,172.400 104.190 C 172.400 103.932,172.357 103.947,171.100 104.629 M168.300 106.229 C 166.805 107.040,166.896 107.378,168.400 106.600 C 169.060 106.259,169.600 105.894,169.600 105.790 C 169.600 105.532,169.557 105.547,168.300 106.229 M165.500 107.829 C 164.005 108.640,164.096 108.978,165.600 108.200 C 166.260 107.859,166.800 107.494,166.800 107.390 C 166.800 107.132,166.757 107.147,165.500 107.829 M162.100 109.826 C 160.212 110.958,159.777 111.549,161.500 110.641 C 162.709 110.003,164.316 108.831,164.000 108.817 C 163.890 108.812,163.035 109.266,162.100 109.826 M157.676 112.283 C 156.728 112.835,156.035 113.368,156.136 113.469 C 156.236 113.570,157.192 113.104,158.259 112.434 C 160.582 110.975,160.126 110.857,157.676 112.283 M153.104 114.942 C 150.000 116.723,149.596 117.271,152.600 115.626 C 154.787 114.429,156.041 113.581,155.580 113.612 C 155.481 113.619,154.367 114.217,153.104 114.942 M148.700 117.429 C 147.205 118.240,147.296 118.578,148.800 117.800 C 149.460 117.459,150.000 117.094,150.000 116.990 C 150.000 116.732,149.957 116.747,148.700 117.429 M145.900 119.029 C 145.295 119.357,144.800 119.710,144.800 119.813 C 144.800 120.199,145.432 119.957,146.400 119.200 C 147.589 118.270,147.411 118.209,145.900 119.029 M141.600 121.636 C 140.936 122.179,140.869 122.315,141.400 122.040 C 142.705 121.366,143.428 120.812,143.000 120.815 C 142.780 120.817,142.150 121.186,141.600 121.636 M138.800 123.233 L 137.800 124.048 139.100 123.414 C 139.815 123.065,140.400 122.694,140.400 122.590 C 140.400 122.192,139.763 122.448,138.800 123.233 M136.000 124.833 L 135.000 125.648 136.300 125.014 C 137.015 124.665,137.600 124.294,137.600 124.190 C 137.600 123.792,136.963 124.048,136.000 124.833 M132.125 126.931 C 129.168 128.739,128.958 129.175,131.800 127.605 C 134.347 126.199,135.219 125.579,134.580 125.631 C 134.371 125.647,133.266 126.232,132.125 126.931 M126.525 130.131 C 123.565 131.941,123.369 132.335,126.200 130.784 C 128.752 129.387,129.616 128.779,128.980 128.831 C 128.771 128.847,127.666 129.432,126.525 130.131 M122.000 132.833 L 121.000 133.648 122.300 133.014 C 123.015 132.665,123.600 132.294,123.600 132.190 C 123.600 131.792,122.963 132.048,122.000 132.833 M119.500 134.229 C 118.005 135.040,118.096 135.378,119.600 134.600 C 120.260 134.259,120.800 133.894,120.800 133.790 C 120.800 133.532,120.757 133.547,119.500 134.229 M116.700 135.829 C 115.205 136.640,115.296 136.978,116.800 136.200 C 117.460 135.859,118.000 135.494,118.000 135.390 C 118.000 135.132,117.957 135.147,116.700 135.829 M113.600 137.633 L 112.600 138.448 113.900 137.814 C 114.615 137.465,115.200 137.094,115.200 136.990 C 115.200 136.592,114.563 136.848,113.600 137.633 M111.100 139.029 C 109.605 139.840,109.696 140.178,111.200 139.400 C 111.860 139.059,112.400 138.694,112.400 138.590 C 112.400 138.332,112.357 138.347,111.100 139.029 M108.000 140.833 L 107.000 141.648 108.300 141.014 C 109.015 140.665,109.600 140.294,109.600 140.190 C 109.600 139.792,108.963 140.048,108.000 140.833 M105.200 142.433 L 104.200 143.248 105.500 142.614 C 106.215 142.265,106.800 141.894,106.800 141.790 C 106.800 141.392,106.163 141.648,105.200 142.433 M102.400 144.033 L 101.400 144.848 102.700 144.214 C 103.415 143.865,104.000 143.494,104.000 143.390 C 104.000 142.992,103.363 143.248,102.400 144.033 M99.900 145.429 C 98.405 146.240,98.496 146.578,100.000 145.800 C 100.660 145.459,101.200 145.094,101.200 144.990 C 101.200 144.732,101.157 144.747,99.900 145.429 M97.100 147.029 C 95.605 147.840,95.696 148.178,97.200 147.400 C 97.860 147.059,98.400 146.694,98.400 146.590 C 98.400 146.332,98.357 146.347,97.100 147.029 M94.300 148.629 C 92.805 149.440,92.896 149.778,94.400 149.000 C 95.060 148.659,95.600 148.294,95.600 148.190 C 95.600 147.932,95.557 147.947,94.300 148.629 M91.500 150.229 C 90.005 151.040,90.096 151.378,91.600 150.600 C 92.260 150.259,92.800 149.894,92.800 149.790 C 92.800 149.532,92.757 149.547,91.500 150.229 M88.700 151.829 C 87.205 152.640,87.296 152.978,88.800 152.200 C 89.460 151.859,90.000 151.494,90.000 151.390 C 90.000 151.132,89.957 151.147,88.700 151.829 M85.900 153.429 C 84.405 154.240,84.496 154.578,86.000 153.800 C 86.660 153.459,87.200 153.094,87.200 152.990 C 87.200 152.732,87.157 152.747,85.900 153.429 M83.100 155.029 C 81.605 155.840,81.696 156.178,83.200 155.400 C 83.860 155.059,84.400 154.694,84.400 154.590 C 84.400 154.332,84.357 154.347,83.100 155.029 M80.300 156.629 C 78.805 157.440,78.896 157.778,80.400 157.000 C 81.060 156.659,81.600 156.294,81.600 156.190 C 81.600 155.932,81.557 155.947,80.300 156.629 M76.304 158.942 C 73.200 160.723,72.796 161.271,75.800 159.626 C 77.987 158.429,79.241 157.581,78.780 157.612 C 78.681 157.619,77.567 158.217,76.304 158.942 M71.900 161.429 C 70.405 162.240,70.496 162.578,72.000 161.800 C 72.660 161.459,73.200 161.094,73.200 160.990 C 73.200 160.732,73.157 160.747,71.900 161.429 M137.700 162.296 C 138.965 162.375,141.035 162.375,142.300 162.296 C 143.565 162.216,142.530 162.151,140.000 162.151 C 137.470 162.151,136.435 162.216,137.700 162.296 M67.100 164.221 C 65.395 165.214,64.000 166.109,64.000 166.210 C 64.000 166.424,68.216 164.111,69.630 163.121 C 71.388 161.890,70.251 162.385,67.100 164.221 M130.900 162.676 C 131.285 162.776,131.915 162.776,132.300 162.676 C 132.685 162.575,132.370 162.493,131.600 162.493 C 130.830 162.493,130.515 162.575,130.900 162.676 M247.700 162.676 C 248.085 162.776,248.715 162.776,249.100 162.676 C 249.485 162.575,249.170 162.493,248.400 162.493 C 247.630 162.493,247.315 162.575,247.700 162.676 M263.105 162.683 C 263.602 162.779,264.322 162.775,264.705 162.675 C 265.087 162.575,264.680 162.496,263.800 162.501 C 262.920 162.505,262.607 162.587,263.105 162.683 M126.100 163.087 C 126.705 163.178,127.695 163.178,128.300 163.087 C 128.905 162.995,128.410 162.920,127.200 162.920 C 125.990 162.920,125.495 162.995,126.100 163.087 M149.505 163.083 C 150.002 163.179,150.722 163.175,151.105 163.075 C 151.487 162.975,151.080 162.896,150.200 162.901 C 149.320 162.905,149.007 162.987,149.505 163.083 M236.200 166.800 C 235.540 167.237,235.180 167.592,235.400 167.588 C 235.801 167.582,237.976 166.023,237.600 166.012 C 237.490 166.008,236.860 166.363,236.200 166.800 M60.700 167.829 C 59.205 168.640,59.296 168.978,60.800 168.200 C 61.460 167.859,62.000 167.494,62.000 167.390 C 62.000 167.132,61.957 167.147,60.700 167.829 M55.325 170.931 C 52.368 172.739,52.158 173.175,55.000 171.605 C 57.547 170.199,58.419 169.579,57.780 169.631 C 57.571 169.647,56.466 170.232,55.325 170.931 M229.186 172.300 L 227.000 174.600 229.300 172.414 C 230.565 171.211,231.600 170.176,231.600 170.114 C 231.600 169.817,231.218 170.163,229.186 172.300 M253.916 171.097 C 255.299 171.175,257.459 171.174,258.716 171.095 C 259.972 171.016,258.840 170.952,256.200 170.953 C 253.560 170.953,252.532 171.018,253.916 171.097 M173.800 174.000 C 175.106 175.320,176.265 176.400,176.375 176.400 C 176.485 176.400,175.506 175.320,174.200 174.000 C 172.894 172.680,171.735 171.600,171.625 171.600 C 171.515 171.600,172.494 172.680,173.800 174.000 M247.200 172.018 C 246.762 172.315,246.924 172.352,247.800 172.156 C 249.271 171.827,249.590 171.598,248.567 171.606 C 248.145 171.609,247.530 171.795,247.200 172.018 M137.913 172.695 C 139.076 172.776,140.876 172.776,141.913 172.693 C 142.951 172.611,142.000 172.545,139.800 172.546 C 137.600 172.547,136.751 172.614,137.913 172.695 M50.800 173.633 L 49.800 174.448 51.100 173.814 C 51.815 173.465,52.400 173.094,52.400 172.990 C 52.400 172.592,51.763 172.848,50.800 173.633 M131.297 202.500 L 131.395 232.200 131.500 202.729 C 131.599 175.090,131.649 173.246,132.303 173.075 C 132.824 172.939,132.773 172.881,132.100 172.846 L 131.200 172.800 131.297 202.500 M146.700 173.082 C 147.195 173.178,148.005 173.178,148.500 173.082 C 148.995 172.987,148.590 172.909,147.600 172.909 C 146.610 172.909,146.205 172.987,146.700 173.082 M275.717 174.300 C 275.575 174.685,275.265 175.149,275.029 175.330 C 274.753 175.543,274.800 175.607,275.162 175.510 C 275.682 175.370,276.621 173.600,276.175 173.600 C 276.065 173.600,275.859 173.915,275.717 174.300 M48.000 175.236 C 47.336 175.779,47.269 175.915,47.800 175.640 C 49.105 174.966,49.828 174.412,49.400 174.415 C 49.180 174.417,48.550 174.786,48.000 175.236 M156.833 175.349 C 157.245 175.717,159.600 176.800,159.600 176.621 C 159.600 176.390,157.382 175.200,156.953 175.200 C 156.796 175.200,156.742 175.267,156.833 175.349 M225.287 176.900 C 223.827 179.056,223.512 179.600,223.720 179.600 C 223.812 179.600,224.544 178.610,225.347 177.400 C 226.151 176.190,226.725 175.200,226.623 175.200 C 226.522 175.200,225.920 175.965,225.287 176.900 M237.381 178.100 L 235.800 179.800 237.500 178.219 C 239.081 176.748,239.384 176.400,239.081 176.400 C 239.016 176.400,238.251 177.165,237.381 178.100 M42.400 178.433 L 41.400 179.248 42.700 178.614 C 43.415 178.265,44.000 177.894,44.000 177.790 C 44.000 177.392,43.363 177.648,42.400 178.433 M163.983 180.100 C 164.964 181.145,165.819 182.000,165.883 182.000 C 166.184 182.000,165.866 181.641,164.100 179.983 L 162.200 178.200 163.983 180.100 M39.600 180.033 L 38.600 180.848 39.900 180.214 C 40.615 179.865,41.200 179.494,41.200 179.390 C 41.200 178.992,40.563 179.248,39.600 180.033 M234.893 181.100 C 233.857 182.596,233.521 183.200,233.723 183.200 C 233.817 183.200,234.370 182.480,234.953 181.600 C 236.136 179.812,236.084 179.379,234.893 181.100 M36.800 181.633 L 35.800 182.448 37.100 181.814 C 37.815 181.465,38.400 181.094,38.400 180.990 C 38.400 180.592,37.763 180.848,36.800 181.633 M34.300 183.029 C 32.805 183.840,32.896 184.178,34.400 183.400 C 35.060 183.059,35.600 182.694,35.600 182.590 C 35.600 182.332,35.557 182.347,34.300 183.029 M221.265 184.217 C 221.009 184.778,220.807 185.454,220.816 185.719 C 220.824 185.983,221.097 185.588,221.422 184.839 C 222.105 183.265,221.961 182.690,221.265 184.217 M31.500 184.629 C 30.005 185.440,30.096 185.778,31.600 185.000 C 32.260 184.659,32.800 184.294,32.800 184.190 C 32.800 183.932,32.757 183.947,31.500 184.629 M180.814 184.054 C 180.806 184.194,181.063 184.914,181.384 185.654 C 181.706 186.394,181.969 186.730,181.970 186.400 C 181.972 185.824,180.843 183.534,180.814 184.054 M28.400 186.433 L 27.400 187.248 28.700 186.614 C 29.415 186.265,30.000 185.894,30.000 185.790 C 30.000 185.392,29.363 185.648,28.400 186.433 M25.600 188.033 L 24.600 188.848 25.900 188.214 C 26.615 187.865,27.200 187.494,27.200 187.390 C 27.200 186.992,26.563 187.248,25.600 188.033 M23.100 189.429 C 21.605 190.240,21.696 190.578,23.200 189.800 C 23.860 189.459,24.400 189.094,24.400 188.990 C 24.400 188.732,24.357 188.747,23.100 189.429 M20.300 191.029 C 18.805 191.840,18.896 192.178,20.400 191.400 C 21.060 191.059,21.600 190.694,21.600 190.590 C 21.600 190.332,21.557 190.347,20.300 191.029 M17.500 192.629 C 16.005 193.440,16.096 193.778,17.600 193.000 C 18.260 192.659,18.800 192.294,18.800 192.190 C 18.800 191.932,18.757 191.947,17.500 192.629 M14.700 194.229 C 14.095 194.557,13.600 194.910,13.600 195.013 C 13.600 195.399,14.232 195.157,15.200 194.400 C 16.389 193.470,16.211 193.409,14.700 194.229 M218.509 195.200 C 218.509 196.190,218.587 196.595,218.682 196.100 C 218.778 195.605,218.778 194.795,218.682 194.300 C 218.587 193.805,218.509 194.210,218.509 195.200 M229.314 196.600 C 229.317 197.700,229.395 198.103,229.487 197.495 C 229.579 196.886,229.577 195.986,229.482 195.495 C 229.387 195.003,229.311 195.500,229.314 196.600 M11.900 195.829 C 10.405 196.640,10.496 196.978,12.000 196.200 C 12.660 195.859,13.200 195.494,13.200 195.390 C 13.200 195.132,13.157 195.147,11.900 195.829 M184.165 202.400 C 184.165 206.250,184.225 207.825,184.298 205.900 C 184.371 203.975,184.371 200.825,184.298 198.900 C 184.225 196.975,184.165 198.550,184.165 202.400 M171.720 198.000 C 171.720 199.210,171.795 199.705,171.887 199.100 C 171.978 198.495,171.978 197.505,171.887 196.900 C 171.795 196.295,171.720 196.790,171.720 198.000 M8.600 197.627 C 7.940 198.050,7.544 198.397,7.720 198.398 C 8.160 198.401,10.400 197.224,10.400 196.990 C 10.400 196.642,9.812 196.851,8.600 197.627 M218.153 202.600 C 218.153 205.240,218.218 206.268,218.297 204.884 C 218.375 203.501,218.374 201.341,218.295 200.084 C 218.216 198.828,218.152 199.960,218.153 202.600 M228.934 202.800 C 228.934 204.450,229.005 205.125,229.091 204.300 C 229.178 203.475,229.178 202.125,229.091 201.300 C 229.005 200.475,228.934 201.150,228.934 202.800 M8.800 202.367 C 9.763 203.152,10.400 203.408,10.400 203.010 C 10.400 202.906,9.815 202.535,9.100 202.186 L 7.800 201.552 8.800 202.367 M10.800 203.379 C 10.800 203.489,11.340 203.859,12.000 204.200 C 12.660 204.541,13.200 204.731,13.200 204.621 C 13.200 204.511,12.660 204.141,12.000 203.800 C 11.340 203.459,10.800 203.269,10.800 203.379 M268.987 203.690 C 268.878 203.973,268.839 210.504,268.900 218.202 L 269.011 232.200 269.105 217.900 L 269.200 203.600 273.996 203.600 L 278.792 203.600 278.902 221.700 L 279.013 239.800 279.006 221.600 L 279.000 203.400 274.092 203.288 C 270.377 203.203,269.136 203.300,268.987 203.690 M13.600 204.979 C 13.600 205.089,14.140 205.459,14.800 205.800 C 15.460 206.141,16.000 206.331,16.000 206.221 C 16.000 206.111,15.460 205.741,14.800 205.400 C 14.140 205.059,13.600 204.869,13.600 204.979 M171.724 207.000 C 171.726 208.320,171.801 208.812,171.890 208.093 C 171.979 207.374,171.977 206.294,171.886 205.693 C 171.795 205.092,171.722 205.680,171.724 207.000 M16.400 206.579 C 16.400 206.689,16.940 207.059,17.600 207.400 C 18.260 207.741,18.800 207.931,18.800 207.821 C 18.800 207.711,18.260 207.341,17.600 207.000 C 16.940 206.659,16.400 206.469,16.400 206.579 M229.314 208.600 C 229.317 209.700,229.395 210.103,229.487 209.495 C 229.579 208.886,229.577 207.986,229.482 207.495 C 229.387 207.003,229.311 207.500,229.314 208.600 M20.000 208.767 C 20.963 209.552,21.600 209.808,21.600 209.410 C 21.600 209.306,21.015 208.935,20.300 208.586 L 19.000 207.952 20.000 208.767 M218.514 210.200 C 218.517 211.300,218.595 211.703,218.687 211.095 C 218.779 210.486,218.777 209.586,218.682 209.095 C 218.587 208.603,218.511 209.100,218.514 210.200 M22.000 209.779 C 22.000 209.889,22.540 210.259,23.200 210.600 C 23.860 210.941,24.400 211.131,24.400 211.021 C 24.400 210.911,23.860 210.541,23.200 210.200 C 22.540 209.859,22.000 209.669,22.000 209.779 M24.800 211.379 C 24.800 211.489,25.340 211.859,26.000 212.200 C 26.660 212.541,27.200 212.731,27.200 212.621 C 27.200 212.511,26.660 212.141,26.000 211.800 C 25.340 211.459,24.800 211.269,24.800 211.379 M27.600 212.979 C 27.600 213.089,28.140 213.459,28.800 213.800 C 29.460 214.141,30.000 214.331,30.000 214.221 C 30.000 214.111,29.460 213.741,28.800 213.400 C 28.140 213.059,27.600 212.869,27.600 212.979 M31.200 215.164 C 31.750 215.614,32.380 215.983,32.600 215.985 C 33.028 215.988,32.305 215.434,31.000 214.760 C 30.469 214.485,30.536 214.621,31.200 215.164 M33.200 216.179 C 33.200 216.289,33.740 216.659,34.400 217.000 C 35.060 217.341,35.600 217.531,35.600 217.421 C 35.600 217.311,35.060 216.941,34.400 216.600 C 33.740 216.259,33.200 216.069,33.200 216.179 M36.800 218.367 C 37.763 219.152,38.400 219.408,38.400 219.010 C 38.400 218.906,37.815 218.535,37.100 218.186 L 35.800 217.552 36.800 218.367 M39.600 219.967 C 40.563 220.752,41.200 221.008,41.200 220.610 C 41.200 220.506,40.615 220.135,39.900 219.786 L 38.600 219.152 39.600 219.967 M42.400 221.567 C 43.363 222.352,44.000 222.608,44.000 222.210 C 44.000 222.106,43.415 221.735,42.700 221.386 L 41.400 220.752 42.400 221.567 M233.202 221.833 C 233.203 222.035,233.668 222.740,234.235 223.400 L 235.266 224.600 234.363 223.200 C 233.204 221.404,233.200 221.399,233.202 221.833 M45.200 223.167 C 46.163 223.952,46.800 224.208,46.800 223.810 C 46.800 223.706,46.215 223.335,45.500 222.986 L 44.200 222.352 45.200 223.167 M178.653 224.900 L 177.933 226.200 178.758 225.200 C 179.489 224.313,179.814 223.600,179.486 223.600 C 179.424 223.600,179.049 224.185,178.653 224.900 M48.000 224.767 C 48.963 225.552,49.600 225.808,49.600 225.410 C 49.600 225.306,49.015 224.935,48.300 224.586 L 47.000 223.952 48.000 224.767 M162.594 225.912 C 161.931 226.510,160.941 227.323,160.394 227.717 C 159.437 228.408,159.449 228.408,160.718 227.721 C 161.443 227.328,162.511 226.510,163.093 225.903 C 164.443 224.494,164.160 224.499,162.594 225.912 M237.200 227.000 C 238.395 228.210,239.463 229.200,239.573 229.200 C 239.683 229.200,238.795 228.210,237.600 227.000 C 236.405 225.790,235.337 224.800,235.227 224.800 C 235.117 224.800,236.005 225.790,237.200 227.000 M50.800 226.367 C 51.763 227.152,52.400 227.408,52.400 227.010 C 52.400 226.906,51.815 226.535,51.100 226.186 L 49.800 225.552 50.800 226.367 M53.400 227.796 C 54.294 228.539,56.828 229.909,56.200 229.310 C 55.980 229.100,55.080 228.524,54.200 228.030 C 53.320 227.535,52.960 227.430,53.400 227.796 M174.768 230.100 C 173.584 231.475,172.932 232.348,173.320 232.041 C 174.134 231.394,177.362 227.600,177.097 227.600 C 177.000 227.600,175.951 228.725,174.768 230.100 M155.800 229.814 C 155.140 230.117,154.870 230.366,155.200 230.368 C 155.530 230.370,156.250 230.114,156.800 229.800 C 158.065 229.077,157.389 229.087,155.800 229.814 M226.000 230.125 C 226.000 230.194,226.585 230.779,227.300 231.425 L 228.600 232.600 227.425 231.300 C 226.330 230.088,226.000 229.816,226.000 230.125 M59.200 231.167 C 60.163 231.952,60.800 232.208,60.800 231.810 C 60.800 231.706,60.215 231.335,59.500 230.986 L 58.200 230.352 59.200 231.167 M147.905 231.883 C 148.402 231.979,149.122 231.975,149.505 231.875 C 149.887 231.775,149.480 231.696,148.600 231.701 C 147.720 231.705,147.407 231.787,147.905 231.883 M133.907 232.290 C 134.626 232.379,135.706 232.377,136.307 232.286 C 136.908 232.195,136.320 232.122,135.000 232.124 C 133.680 232.126,133.188 232.201,133.907 232.290 M143.500 232.282 C 143.995 232.378,144.805 232.378,145.300 232.282 C 145.795 232.187,145.390 232.109,144.400 232.109 C 143.410 232.109,143.005 232.187,143.500 232.282 M62.400 232.990 C 62.400 233.094,62.985 233.465,63.700 233.814 L 65.000 234.448 64.000 233.633 C 63.037 232.848,62.400 232.592,62.400 232.990 M251.107 233.890 C 251.826 233.979,252.906 233.977,253.507 233.886 C 254.108 233.795,253.520 233.722,252.200 233.724 C 250.880 233.726,250.388 233.801,251.107 233.890 M259.491 233.889 C 260.201 233.977,261.461 233.979,262.291 233.892 C 263.121 233.805,262.540 233.733,261.000 233.731 C 259.460 233.729,258.781 233.800,259.491 233.889 M230.364 234.535 C 230.949 235.263,233.200 236.977,233.200 236.694 C 233.200 236.606,232.435 235.926,231.500 235.183 C 230.565 234.440,230.054 234.148,230.364 234.535 M65.400 234.697 C 65.620 234.908,66.880 235.661,68.200 236.371 C 69.520 237.082,70.240 237.364,69.800 237.000 C 68.907 236.259,64.771 234.094,65.400 234.697 M234.200 237.407 C 234.640 237.766,235.360 238.235,235.800 238.451 L 236.600 238.844 235.800 238.193 C 235.360 237.834,234.640 237.365,234.200 237.149 L 233.400 236.756 234.200 237.407 M163.200 238.200 C 162.650 238.514,162.380 238.772,162.600 238.772 C 162.820 238.772,163.450 238.514,164.000 238.200 C 164.550 237.886,164.820 237.628,164.600 237.628 C 164.380 237.628,163.750 237.886,163.200 238.200 M72.400 238.543 C 72.400 238.740,73.581 239.458,79.900 243.097 C 80.835 243.635,81.600 243.985,81.600 243.873 C 81.600 243.761,80.205 242.865,78.500 241.881 C 76.795 240.897,74.725 239.694,73.900 239.207 C 73.075 238.720,72.400 238.421,72.400 238.543 M269.300 241.476 C 269.685 241.576,270.315 241.576,270.700 241.476 C 271.085 241.375,270.770 241.293,270.000 241.293 C 269.230 241.293,268.915 241.375,269.300 241.476 M125.100 241.882 C 125.595 241.978,126.405 241.978,126.900 241.882 C 127.395 241.787,126.990 241.709,126.000 241.709 C 125.010 241.709,124.605 241.787,125.100 241.882 M150.500 241.876 C 150.885 241.976,151.515 241.976,151.900 241.876 C 152.285 241.775,151.970 241.693,151.200 241.693 C 150.430 241.693,150.115 241.775,150.500 241.876 M128.900 242.276 C 129.285 242.376,129.915 242.376,130.300 242.276 C 130.685 242.175,130.370 242.093,129.600 242.093 C 128.830 242.093,128.515 242.175,128.900 242.276 M246.500 242.276 C 246.885 242.376,247.515 242.376,247.900 242.276 C 248.285 242.175,247.970 242.093,247.200 242.093 C 246.430 242.093,246.115 242.175,246.500 242.276 M263.500 242.282 C 263.995 242.378,264.805 242.378,265.300 242.282 C 265.795 242.187,265.390 242.109,264.400 242.109 C 263.410 242.109,263.005 242.187,263.500 242.282 M135.700 242.698 C 137.625 242.771,140.775 242.771,142.700 242.698 C 144.625 242.625,143.050 242.565,139.200 242.565 C 135.350 242.565,133.775 242.625,135.700 242.698 M259.300 242.676 C 259.685 242.776,260.315 242.776,260.700 242.676 C 261.085 242.575,260.770 242.493,260.000 242.493 C 259.230 242.493,258.915 242.575,259.300 242.676 M82.000 244.179 C 82.000 244.289,82.540 244.659,83.200 245.000 C 83.860 245.341,84.400 245.531,84.400 245.421 C 84.400 245.311,83.860 244.941,83.200 244.600 C 82.540 244.259,82.000 244.069,82.000 244.179 M84.800 245.779 C 84.800 245.889,85.340 246.259,86.000 246.600 C 86.660 246.941,87.200 247.131,87.200 247.021 C 87.200 246.911,86.660 246.541,86.000 246.200 C 85.340 245.859,84.800 245.669,84.800 245.779 M87.600 247.379 C 87.600 247.489,88.140 247.859,88.800 248.200 C 89.460 248.541,90.000 248.731,90.000 248.621 C 90.000 248.511,89.460 248.141,88.800 247.800 C 88.140 247.459,87.600 247.269,87.600 247.379 M90.400 248.979 C 90.400 249.089,90.940 249.459,91.600 249.800 C 92.260 250.141,92.800 250.331,92.800 250.221 C 92.800 250.111,92.260 249.741,91.600 249.400 C 90.940 249.059,90.400 248.869,90.400 248.979 M93.200 250.579 C 93.200 250.689,93.740 251.059,94.400 251.400 C 95.060 251.741,95.600 251.931,95.600 251.821 C 95.600 251.711,95.060 251.341,94.400 251.000 C 93.740 250.659,93.200 250.469,93.200 250.579 M96.000 252.179 C 96.000 252.289,96.540 252.659,97.200 253.000 C 97.860 253.341,98.400 253.531,98.400 253.421 C 98.400 253.311,97.860 252.941,97.200 252.600 C 96.540 252.259,96.000 252.069,96.000 252.179 M98.800 253.779 C 98.800 253.889,99.340 254.259,100.000 254.600 C 100.660 254.941,101.200 255.131,101.200 255.021 C 101.200 254.911,100.660 254.541,100.000 254.200 C 99.340 253.859,98.800 253.669,98.800 253.779 M101.600 255.379 C 101.600 255.489,102.140 255.859,102.800 256.200 C 103.460 256.541,104.000 256.731,104.000 256.621 C 104.000 256.511,103.460 256.141,102.800 255.800 C 102.140 255.459,101.600 255.269,101.600 255.379 M105.200 257.567 C 106.163 258.352,106.800 258.608,106.800 258.210 C 106.800 258.106,106.215 257.735,105.500 257.386 L 104.200 256.752 105.200 257.567 M108.000 259.167 C 108.963 259.952,109.600 260.208,109.600 259.810 C 109.600 259.706,109.015 259.335,108.300 258.986 L 107.000 258.352 108.000 259.167 M110.000 260.179 C 110.000 260.289,110.540 260.659,111.200 261.000 C 111.860 261.341,112.400 261.531,112.400 261.421 C 112.400 261.311,111.860 260.941,111.200 260.600 C 110.540 260.259,110.000 260.069,110.000 260.179 M113.600 262.367 C 114.563 263.152,115.200 263.408,115.200 263.010 C 115.200 262.906,114.615 262.535,113.900 262.186 L 112.600 261.552 113.600 262.367 M115.600 263.379 C 115.600 263.489,116.140 263.859,116.800 264.200 C 117.460 264.541,118.000 264.731,118.000 264.621 C 118.000 264.511,117.460 264.141,116.800 263.800 C 116.140 263.459,115.600 263.269,115.600 263.379 M119.200 265.567 C 120.163 266.352,120.800 266.608,120.800 266.210 C 120.800 266.106,120.215 265.735,119.500 265.386 L 118.200 264.752 119.200 265.567 M122.000 267.167 C 122.963 267.952,123.600 268.208,123.600 267.810 C 123.600 267.706,123.015 267.335,122.300 266.986 L 121.000 266.352 122.000 267.167 M124.000 268.143 C 124.000 268.475,128.873 271.260,129.084 271.049 C 129.186 270.948,128.848 270.646,128.334 270.377 C 127.820 270.109,126.635 269.448,125.700 268.907 C 124.765 268.366,124.000 268.022,124.000 268.143 M130.400 271.967 C 131.363 272.752,132.000 273.008,132.000 272.610 C 132.000 272.506,131.415 272.135,130.700 271.786 L 129.400 271.152 130.400 271.967 M136.000 275.167 C 136.963 275.952,137.600 276.208,137.600 275.810 C 137.600 275.706,137.015 275.335,136.300 274.986 L 135.000 274.352 136.000 275.167 M138.800 276.767 C 139.763 277.552,140.400 277.808,140.400 277.410 C 140.400 277.306,139.815 276.935,139.100 276.586 L 137.800 275.952 138.800 276.767 M141.566 278.281 C 142.841 279.230,147.200 281.696,147.200 281.469 C 147.200 281.299,141.836 278.059,141.000 277.724 C 140.780 277.635,141.035 277.886,141.566 278.281 M149.400 282.706 C 149.620 282.945,152.050 284.431,154.800 286.008 C 160.978 289.551,161.200 289.670,161.200 289.447 C 161.200 289.348,159.085 288.060,156.500 286.586 C 153.915 285.111,151.170 283.537,150.400 283.088 C 149.630 282.639,149.180 282.467,149.400 282.706 M161.820 289.940 C 162.413 290.470,166.800 292.881,166.800 292.676 C 166.800 292.458,162.053 289.600,161.691 289.600 C 161.553 289.600,161.611 289.753,161.820 289.940 M167.200 292.990 C 167.200 293.094,167.785 293.465,168.500 293.814 L 169.800 294.448 168.800 293.633 C 167.837 292.848,167.200 292.592,167.200 292.990 M170.000 294.579 C 170.000 294.689,170.540 295.059,171.200 295.400 C 171.860 295.741,172.400 295.931,172.400 295.821 C 172.400 295.711,171.860 295.341,171.200 295.000 C 170.540 294.659,170.000 294.469,170.000 294.579 M173.000 296.275 C 173.220 296.498,174.480 297.274,175.800 298.000 C 177.120 298.726,178.020 299.133,177.800 298.904 C 177.580 298.675,176.320 297.899,175.000 297.179 C 173.680 296.459,172.780 296.052,173.000 296.275 M178.400 299.379 C 178.400 299.489,178.940 299.859,179.600 300.200 C 180.260 300.541,180.800 300.731,180.800 300.621 C 180.800 300.511,180.260 300.141,179.600 299.800 C 178.940 299.459,178.400 299.269,178.400 299.379 " stroke="none" fill="#bcbcbc" fill-rule="evenodd"></path></g></svg>